<svg width="410" height="81" viewBox="0 0 410 81" version="1.1" xmlns="http://www.w3.org/2000/svg" xmlns:xlink="http://www.w3.org/1999/xlink">
<title>Heavenly</title>
<desc>Created using Figma</desc>
<g id="Canvas" transform="translate(-43 283)">
<rect x="43" y="-283" width="410" height="81" fill="#E5E5E5"/>
<g id="HEAVENLY SALON" style="mix-blend-mode:multiply" filter="url(#filter0_d)">
<use xlink:href="#path0_fill" transform="matrix(0.999971 -0.00763586 0.00763586 0.999971 -440 -276.216)" fill="#1C1C04" style="mix-blend-mode:darken"/>
<use xlink:href="#path1_fill" transform="matrix(0.999971 -0.00763586 0.00763586 0.999971 -440 -276.216)" fill="#1C1C04" style="mix-blend-mode:darken"/>
<use xlink:href="#path2_stroke" transform="matrix(0.999971 -0.00763586 0.00763586 0.999971 -440 -276.216)" fill="#133D6E" style="mix-blend-mode:color"/>
<use xlink:href="#path3_stroke" transform="matrix(0.999971 -0.00763586 0.00763586 0.999971 -440 -276.216)" fill="#133D6E" style="mix-blend-mode:color"/>
</g>
</g>
<defs>
<filter id="filter0_d" filterUnits="userSpaceOnUse" x="43" y="-283" width="410" height="81" color-interpolation-filters="sRGB">
<feFlood flood-opacity="0" result="BackgroundImageFix"/>
<feColorMatrix in="SourceAlpha" type="matrix" values="0 0 0 0 0 0 0 0 0 0 0 0 0 0 0 0 0 0 255 0"/>
<feOffset dx="0" dy="4"/>
<feGaussianBlur stdDeviation="2"/>
<feColorMatrix type="matrix" values="0 0 0 0 0 0 0 0 0 0 0 0 0 0 0 0 0 0 0.5 0"/>
<feBlend mode="normal" in2="BackgroundImageFix" result="effect1_dropShadow"/>
<feBlend mode="normal" in="SourceGraphic" in2="effect1_dropShadow" result="shape"/>
</filter>
<path id="path0_fill" d="M 515.044 27L 515.044 15.293L 493.406 15.293L 493.406 27L 491.208 27L 491.208 2.84766L 493.406 2.84766L 493.406 13.2539L 515.044 13.2539L 515.044 2.84766L 517.242 2.84766L 517.242 27L 515.044 27ZM 543.38 27L 543.38 2.84766L 563.507 2.84766L 563.507 4.9043L 545.771 4.9043L 545.771 13.2188L 562.611 13.2188L 562.611 15.2578L 545.771 15.2578L 545.771 24.9434L 563.771 24.9434L 563.771 27L 543.38 27ZM 610.669 27L 607.347 20.6367L 590.947 20.6367L 587.625 27L 585.216 27L 597.855 2.84766L 600.439 2.84766L 613.078 27L 610.669 27ZM 599.156 4.97461L 592.019 18.6152L 606.275 18.6152L 599.156 4.97461ZM 645.914 27L 642.626 27L 630.568 2.84766L 633.029 2.84766L 644.332 25.4883L 655.634 2.84766L 658.078 2.84766L 645.914 27ZM 681.123 27L 681.123 2.84766L 701.25 2.84766L 701.25 4.9043L 683.513 4.9043L 683.513 13.2188L 700.353 13.2188L 700.353 15.2578L 683.513 15.2578L 683.513 24.9434L 701.513 24.9434L 701.513 27L 681.123 27ZM 749.484 27L 728.496 5.73047L 728.496 27L 726.298 27L 726.298 2.84766L 728.724 2.84766L 749.712 24.1875L 749.712 2.84766L 751.875 2.84766L 751.875 27L 749.484 27ZM 778.013 27L 778.013 2.84766L 780.21 2.84766L 780.21 24.9434L 797.859 24.9434L 797.859 27L 778.013 27ZM 826.265 16.7695L 826.265 27L 824.068 27L 824.068 16.7695L 812.73 2.84766L 815.349 2.84766L 825.175 14.9414L 834.966 2.84766L 837.603 2.84766L 826.265 16.7695ZM 670.013 44.416C 669.556 44.1934 669.029 43.959 668.431 43.7129C 667.833 43.4551 667.148 43.2266 666.375 43.0273C 665.613 42.8281 664.751 42.6641 663.791 42.5352C 662.83 42.3945 661.763 42.3242 660.591 42.3242C 659.173 42.3242 657.908 42.4062 656.794 42.5703C 655.693 42.7344 654.755 42.9922 653.982 43.3438C 653.22 43.6836 652.634 44.1172 652.224 44.6445C 651.826 45.1719 651.626 45.7988 651.626 46.5254C 651.626 47.1348 651.814 47.668 652.189 48.125C 652.576 48.582 653.091 48.9863 653.736 49.3379C 654.392 49.6895 655.154 50.0117 656.021 50.3047C 656.9 50.5859 657.826 50.8555 658.798 51.1133C 659.783 51.3594 660.791 51.6113 661.822 51.8691C 662.865 52.127 663.873 52.4082 664.845 52.7129C 665.83 53.0059 666.755 53.3398 667.623 53.7148C 668.501 54.0781 669.263 54.5059 669.908 54.998C 670.564 55.4902 671.08 56.0527 671.455 56.6855C 671.841 57.3184 672.035 58.0508 672.035 58.8828C 672.035 59.7852 671.865 60.5762 671.525 61.2559C 671.185 61.9238 670.722 62.5039 670.136 62.9961C 669.562 63.4766 668.882 63.8809 668.097 64.209C 667.324 64.5254 666.492 64.7773 665.601 64.9648C 664.722 65.1523 663.808 65.2812 662.859 65.3516C 661.921 65.4336 660.996 65.4746 660.082 65.4746C 657.984 65.4746 656.08 65.3223 654.369 65.0176C 652.669 64.7129 651.046 64.2969 649.5 63.7695L 649.5 61.0801C 651.093 62.0293 652.775 62.6797 654.544 63.0312C 656.326 63.3828 658.195 63.5586 660.152 63.5586C 661.535 63.5586 662.812 63.4766 663.984 63.3125C 665.156 63.1484 666.169 62.8906 667.025 62.5391C 667.88 62.1758 668.542 61.707 669.011 61.1328C 669.492 60.5586 669.732 59.8555 669.732 59.0234C 669.732 58.3555 669.539 57.7695 669.152 57.2656C 668.777 56.7617 668.261 56.3223 667.605 55.9473C 666.96 55.5605 666.199 55.2207 665.32 54.9277C 664.453 54.6348 663.533 54.3652 662.56 54.1191C 661.587 53.8613 660.58 53.6152 659.537 53.3809C 658.505 53.1348 657.503 52.8711 656.531 52.5898C 655.558 52.3086 654.632 51.9922 653.753 51.6406C 652.886 51.2891 652.125 50.8789 651.468 50.4102C 650.824 49.9297 650.308 49.3789 649.921 48.7578C 649.546 48.1367 649.359 47.416 649.359 46.5957C 649.359 45.7871 649.511 45.0723 649.816 44.4512C 650.121 43.8184 650.537 43.2734 651.064 42.8164C 651.603 42.3594 652.23 41.9785 652.945 41.6738C 653.66 41.3574 654.421 41.1113 655.23 40.9355C 656.05 40.748 656.9 40.6133 657.779 40.5312C 658.658 40.4492 659.525 40.4082 660.38 40.4082C 661.318 40.4082 662.203 40.4492 663.035 40.5312C 663.878 40.6133 664.687 40.7246 665.46 40.8652C 666.246 40.9941 667.007 41.1465 667.746 41.3223C 668.496 41.498 669.251 41.6855 670.013 41.8848L 670.013 44.416ZM 718.951 65L 715.628 58.6367L 699.228 58.6367L 695.906 65L 693.498 65L 706.136 40.8477L 708.72 40.8477L 721.359 65L 718.951 65ZM 707.437 42.9746L 700.3 56.6152L 714.556 56.6152L 707.437 42.9746ZM 744.123 65L 744.123 40.8477L 746.32 40.8477L 746.32 62.9434L 763.968 62.9434L 763.968 65L 744.123 65ZM 816.351 52.9414C 816.351 55.1094 815.958 56.9844 815.173 58.5664C 814.388 60.1367 813.31 61.4375 811.939 62.4688C 810.568 63.4883 808.951 64.2441 807.087 64.7363C 805.224 65.2285 803.214 65.4746 801.058 65.4746C 798.89 65.4746 796.869 65.2285 794.994 64.7363C 793.119 64.2441 791.49 63.4883 790.107 62.4688C 788.724 61.4375 787.64 60.1367 786.855 58.5664C 786.07 56.9844 785.677 55.1094 785.677 52.9414C 785.677 51.5 785.859 50.1934 786.222 49.0215C 786.585 47.8379 787.095 46.7832 787.751 45.8574C 788.408 44.9199 789.199 44.1113 790.125 43.4316C 791.062 42.752 792.099 42.1895 793.236 41.7441C 794.384 41.2871 795.615 40.9531 796.927 40.7422C 798.24 40.5195 799.617 40.4082 801.058 40.4082C 803.214 40.4082 805.224 40.6543 807.087 41.1465C 808.951 41.6387 810.568 42.4004 811.939 43.4316C 813.31 44.4512 814.388 45.752 815.173 47.334C 815.958 48.9043 816.351 50.7734 816.351 52.9414ZM 814.083 52.9414C 814.083 51.2305 813.802 49.7188 813.24 48.4062C 812.689 47.0938 811.869 45.9922 810.779 45.1016C 809.689 44.1992 808.33 43.5195 806.701 43.0625C 805.083 42.5938 803.203 42.3594 801.058 42.3594C 798.914 42.3594 797.021 42.5938 795.38 43.0625C 793.751 43.5312 792.386 44.2168 791.285 45.1191C 790.183 46.0098 789.351 47.1172 788.789 48.4414C 788.226 49.7539 787.945 51.2539 787.945 52.9414C 787.945 54.6523 788.226 56.1641 788.789 57.4766C 789.351 58.7891 790.183 59.8965 791.285 60.7988C 792.386 61.6895 793.751 62.3691 795.38 62.8379C 797.021 63.2949 798.914 63.5234 801.058 63.5234C 803.203 63.5234 805.083 63.2949 806.701 62.8379C 808.33 62.3691 809.689 61.6895 810.779 60.7988C 811.869 59.8965 812.689 58.7891 813.24 57.4766C 813.802 56.1641 814.083 54.6523 814.083 52.9414ZM 863.988 65L 843 43.7305L 843 65L 840.802 65L 840.802 40.8477L 843.228 40.8477L 864.216 62.1875L 864.216 40.8477L 866.378 40.8477L 866.378 65L 863.988 65Z"/>
<path id="path1_fill" d="M 487.148 30.9551L 888.457 30.9551L 888.457 32.748L 487.148 32.748L 487.148 30.9551ZM 646.441 68.4316L 888.439 68.4316L 888.439 70.2246L 646.441 70.2246L 646.441 68.4316Z"/>
<path id="path2_stroke" d="M 515.044 27L 512.544 27L 512.544 29.5L 515.044 29.5L 515.044 27ZM 515.044 15.293L 517.544 15.293L 517.544 12.793L 515.044 12.793L 515.044 15.293ZM 493.406 15.293L 493.406 12.793L 490.906 12.793L 490.906 15.293L 493.406 15.293ZM 493.406 27L 493.406 29.5L 495.906 29.5L 495.906 27L 493.406 27ZM 491.208 27L 488.708 27L 488.708 29.5L 491.208 29.5L 491.208 27ZM 491.208 2.84766L 491.208 0.347656L 488.708 0.347656L 488.708 2.84766L 491.208 2.84766ZM 493.406 2.84766L 495.906 2.84766L 495.906 0.347656L 493.406 0.347656L 493.406 2.84766ZM 493.406 13.2539L 490.906 13.2539L 490.906 15.7539L 493.406 15.7539L 493.406 13.2539ZM 515.044 13.2539L 515.044 15.7539L 517.544 15.7539L 517.544 13.2539L 515.044 13.2539ZM 515.044 2.84766L 515.044 0.347656L 512.544 0.347656L 512.544 2.84766L 515.044 2.84766ZM 517.242 2.84766L 519.742 2.84766L 519.742 0.347656L 517.242 0.347656L 517.242 2.84766ZM 517.242 27L 517.242 29.5L 519.742 29.5L 519.742 27L 517.242 27ZM 517.544 27L 517.544 15.293L 512.544 15.293L 512.544 27L 517.544 27ZM 515.044 12.793L 493.406 12.793L 493.406 17.793L 515.044 17.793L 515.044 12.793ZM 490.906 15.293L 490.906 27L 495.906 27L 495.906 15.293L 490.906 15.293ZM 493.406 24.5L 491.208 24.5L 491.208 29.5L 493.406 29.5L 493.406 24.5ZM 493.708 27L 493.708 2.84766L 488.708 2.84766L 488.708 27L 493.708 27ZM 491.208 5.34766L 493.406 5.34766L 493.406 0.347656L 491.208 0.347656L 491.208 5.34766ZM 490.906 2.84766L 490.906 13.2539L 495.906 13.2539L 495.906 2.84766L 490.906 2.84766ZM 493.406 15.7539L 515.044 15.7539L 515.044 10.7539L 493.406 10.7539L 493.406 15.7539ZM 517.544 13.2539L 517.544 2.84766L 512.544 2.84766L 512.544 13.2539L 517.544 13.2539ZM 515.044 5.34766L 517.242 5.34766L 517.242 0.347656L 515.044 0.347656L 515.044 5.34766ZM 514.742 2.84766L 514.742 27L 519.742 27L 519.742 2.84766L 514.742 2.84766ZM 517.242 24.5L 515.044 24.5L 515.044 29.5L 517.242 29.5L 517.242 24.5ZM 543.38 27L 540.88 27L 540.88 29.5L 543.38 29.5L 543.38 27ZM 543.38 2.84766L 543.38 0.347656L 540.88 0.347656L 540.88 2.84766L 543.38 2.84766ZM 563.507 2.84766L 566.007 2.84766L 566.007 0.347656L 563.507 0.347656L 563.507 2.84766ZM 563.507 4.9043L 563.507 7.4043L 566.007 7.4043L 566.007 4.9043L 563.507 4.9043ZM 545.771 4.9043L 545.771 2.4043L 543.271 2.4043L 543.271 4.9043L 545.771 4.9043ZM 545.771 13.2188L 543.271 13.2188L 543.271 15.7188L 545.771 15.7188L 545.771 13.2188ZM 562.611 13.2188L 565.111 13.2188L 565.111 10.7188L 562.611 10.7188L 562.611 13.2188ZM 562.611 15.2578L 562.611 17.7578L 565.111 17.7578L 565.111 15.2578L 562.611 15.2578ZM 545.771 15.2578L 545.771 12.7578L 543.271 12.7578L 543.271 15.2578L 545.771 15.2578ZM 545.771 24.9434L 543.271 24.9434L 543.271 27.4434L 545.771 27.4434L 545.771 24.9434ZM 563.771 24.9434L 566.271 24.9434L 566.271 22.4434L 563.771 22.4434L 563.771 24.9434ZM 563.771 27L 563.771 29.5L 566.271 29.5L 566.271 27L 563.771 27ZM 545.88 27L 545.88 2.84766L 540.88 2.84766L 540.88 27L 545.88 27ZM 543.38 5.34766L 563.507 5.34766L 563.507 0.347656L 543.38 0.347656L 543.38 5.34766ZM 561.007 2.84766L 561.007 4.9043L 566.007 4.9043L 566.007 2.84766L 561.007 2.84766ZM 563.507 2.4043L 545.771 2.4043L 545.771 7.4043L 563.507 7.4043L 563.507 2.4043ZM 543.271 4.9043L 543.271 13.2188L 548.271 13.2188L 548.271 4.9043L 543.271 4.9043ZM 545.771 15.7188L 562.611 15.7188L 562.611 10.7188L 545.771 10.7188L 545.771 15.7188ZM 560.111 13.2188L 560.111 15.2578L 565.111 15.2578L 565.111 13.2188L 560.111 13.2188ZM 562.611 12.7578L 545.771 12.7578L 545.771 17.7578L 562.611 17.7578L 562.611 12.7578ZM 543.271 15.2578L 543.271 24.9434L 548.271 24.9434L 548.271 15.2578L 543.271 15.2578ZM 545.771 27.4434L 563.771 27.4434L 563.771 22.4434L 545.771 22.4434L 545.771 27.4434ZM 561.271 24.9434L 561.271 27L 566.271 27L 566.271 24.9434L 561.271 24.9434ZM 563.771 24.5L 543.38 24.5L 543.38 29.5L 563.771 29.5L 563.771 24.5ZM 610.669 27L 608.453 28.157L 609.154 29.5L 610.669 29.5L 610.669 27ZM 607.347 20.6367L 609.563 19.4797L 608.862 18.1367L 607.347 18.1367L 607.347 20.6367ZM 590.947 20.6367L 590.947 18.1367L 589.432 18.1367L 588.731 19.4797L 590.947 20.6367ZM 587.625 27L 587.625 29.5L 589.139 29.5L 589.841 28.157L 587.625 27ZM 585.216 27L 583.001 25.8409L 581.086 29.5L 585.216 29.5L 585.216 27ZM 597.855 2.84766L 597.855 0.347656L 596.342 0.347656L 595.64 1.68854L 597.855 2.84766ZM 600.439 2.84766L 602.654 1.68854L 601.952 0.347656L 600.439 0.347656L 600.439 2.84766ZM 613.078 27L 613.078 29.5L 617.207 29.5L 615.293 25.8409L 613.078 27ZM 599.156 4.97461L 601.372 3.8179L 599.158 -0.423422L 596.941 3.81566L 599.156 4.97461ZM 592.019 18.6152L 589.804 17.4563L 587.89 21.1152L 592.019 21.1152L 592.019 18.6152ZM 606.275 18.6152L 606.275 21.1152L 610.4 21.1152L 608.491 17.4585L 606.275 18.6152ZM 612.886 25.843L 609.563 19.4797L 605.131 21.7938L 608.453 28.157L 612.886 25.843ZM 607.347 18.1367L 590.947 18.1367L 590.947 23.1367L 607.347 23.1367L 607.347 18.1367ZM 588.731 19.4797L 585.408 25.843L 589.841 28.157L 593.163 21.7938L 588.731 19.4797ZM 587.625 24.5L 585.216 24.5L 585.216 29.5L 587.625 29.5L 587.625 24.5ZM 587.431 28.1591L 600.07 4.00677L 595.64 1.68854L 583.001 25.8409L 587.431 28.1591ZM 597.855 5.34766L 600.439 5.34766L 600.439 0.347656L 597.855 0.347656L 597.855 5.34766ZM 598.224 4.00677L 610.863 28.1591L 615.293 25.8409L 602.654 1.68854L 598.224 4.00677ZM 613.078 24.5L 610.669 24.5L 610.669 29.5L 613.078 29.5L 613.078 24.5ZM 596.941 3.81566L 589.804 17.4563L 594.234 19.7742L 601.371 6.13356L 596.941 3.81566ZM 592.019 21.1152L 606.275 21.1152L 606.275 16.1152L 592.019 16.1152L 592.019 21.1152ZM 608.491 17.4585L 601.372 3.8179L 596.939 6.13132L 604.059 19.7719L 608.491 17.4585ZM 645.914 27L 645.914 29.5L 647.454 29.5L 648.146 28.1245L 645.914 27ZM 642.626 27L 640.39 28.1167L 641.08 29.5L 642.626 29.5L 642.626 27ZM 630.568 2.84766L 630.568 0.347656L 626.525 0.347656L 628.331 3.96439L 630.568 2.84766ZM 633.029 2.84766L 635.266 1.73101L 634.575 0.347656L 633.029 0.347656L 633.029 2.84766ZM 644.332 25.4883L 642.095 26.6049L 644.332 31.0854L 646.568 26.6049L 644.332 25.4883ZM 655.634 2.84766L 655.634 0.347656L 654.088 0.347656L 653.398 1.73101L 655.634 2.84766ZM 658.078 2.84766L 660.31 3.97219L 662.136 0.347656L 658.078 0.347656L 658.078 2.84766ZM 645.914 24.5L 642.626 24.5L 642.626 29.5L 645.914 29.5L 645.914 24.5ZM 644.863 25.8833L 632.805 1.73092L 628.331 3.96439L 640.39 28.1167L 644.863 25.8833ZM 630.568 5.34766L 633.029 5.34766L 633.029 0.347656L 630.568 0.347656L 630.568 5.34766ZM 630.792 3.9643L 642.095 26.6049L 646.568 24.3716L 635.266 1.73101L 630.792 3.9643ZM 646.568 26.6049L 657.871 3.9643L 653.398 1.73101L 642.095 24.3716L 646.568 26.6049ZM 655.634 5.34766L 658.078 5.34766L 658.078 0.347656L 655.634 0.347656L 655.634 5.34766ZM 655.845 1.72313L 643.681 25.8755L 648.146 28.1245L 660.31 3.97219L 655.845 1.72313ZM 681.123 27L 678.623 27L 678.623 29.5L 681.123 29.5L 681.123 27ZM 681.123 2.84766L 681.123 0.347656L 678.623 0.347656L 678.623 2.84766L 681.123 2.84766ZM 701.25 2.84766L 703.75 2.84766L 703.75 0.347656L 701.25 0.347656L 701.25 2.84766ZM 701.25 4.9043L 701.25 7.4043L 703.75 7.4043L 703.75 4.9043L 701.25 4.9043ZM 683.513 4.9043L 683.513 2.4043L 681.013 2.4043L 681.013 4.9043L 683.513 4.9043ZM 683.513 13.2188L 681.013 13.2188L 681.013 15.7188L 683.513 15.7188L 683.513 13.2188ZM 700.353 13.2188L 702.853 13.2188L 702.853 10.7188L 700.353 10.7188L 700.353 13.2188ZM 700.353 15.2578L 700.353 17.7578L 702.853 17.7578L 702.853 15.2578L 700.353 15.2578ZM 683.513 15.2578L 683.513 12.7578L 681.013 12.7578L 681.013 15.2578L 683.513 15.2578ZM 683.513 24.9434L 681.013 24.9434L 681.013 27.4434L 683.513 27.4434L 683.513 24.9434ZM 701.513 24.9434L 704.013 24.9434L 704.013 22.4434L 701.513 22.4434L 701.513 24.9434ZM 701.513 27L 701.513 29.5L 704.013 29.5L 704.013 27L 701.513 27ZM 683.623 27L 683.623 2.84766L 678.623 2.84766L 678.623 27L 683.623 27ZM 681.123 5.34766L 701.25 5.34766L 701.25 0.347656L 681.123 0.347656L 681.123 5.34766ZM 698.75 2.84766L 698.75 4.9043L 703.75 4.9043L 703.75 2.84766L 698.75 2.84766ZM 701.25 2.4043L 683.513 2.4043L 683.513 7.4043L 701.25 7.4043L 701.25 2.4043ZM 681.013 4.9043L 681.013 13.2188L 686.013 13.2188L 686.013 4.9043L 681.013 4.9043ZM 683.513 15.7188L 700.353 15.7188L 700.353 10.7188L 683.513 10.7188L 683.513 15.7188ZM 697.853 13.2188L 697.853 15.2578L 702.853 15.2578L 702.853 13.2188L 697.853 13.2188ZM 700.353 12.7578L 683.513 12.7578L 683.513 17.7578L 700.353 17.7578L 700.353 12.7578ZM 681.013 15.2578L 681.013 24.9434L 686.013 24.9434L 686.013 15.2578L 681.013 15.2578ZM 683.513 27.4434L 701.513 27.4434L 701.513 22.4434L 683.513 22.4434L 683.513 27.4434ZM 699.013 24.9434L 699.013 27L 704.013 27L 704.013 24.9434L 699.013 24.9434ZM 701.513 24.5L 681.123 24.5L 681.123 29.5L 701.513 29.5L 701.513 24.5ZM 749.484 27L 747.704 28.756L 748.439 29.5L 749.484 29.5L 749.484 27ZM 728.496 5.73047L 730.275 3.97451L 725.996 -0.362333L 725.996 5.73047L 728.496 5.73047ZM 728.496 27L 728.496 29.5L 730.996 29.5L 730.996 27L 728.496 27ZM 726.298 27L 723.798 27L 723.798 29.5L 726.298 29.5L 726.298 27ZM 726.298 2.84766L 726.298 0.347656L 723.798 0.347656L 723.798 2.84766L 726.298 2.84766ZM 728.724 2.84766L 730.507 1.09463L 729.772 0.347656L 728.724 0.347656L 728.724 2.84766ZM 749.712 24.1875L 747.93 25.9405L 752.212 30.2946L 752.212 24.1875L 749.712 24.1875ZM 749.712 2.84766L 749.712 0.347656L 747.212 0.347656L 747.212 2.84766L 749.712 2.84766ZM 751.875 2.84766L 754.375 2.84766L 754.375 0.347656L 751.875 0.347656L 751.875 2.84766ZM 751.875 27L 751.875 29.5L 754.375 29.5L 754.375 27L 751.875 27ZM 751.263 25.244L 730.275 3.97451L 726.716 7.48643L 747.704 28.756L 751.263 25.244ZM 725.996 5.73047L 725.996 27L 730.996 27L 730.996 5.73047L 725.996 5.73047ZM 728.496 24.5L 726.298 24.5L 726.298 29.5L 728.496 29.5L 728.496 24.5ZM 728.798 27L 728.798 2.84766L 723.798 2.84766L 723.798 27L 728.798 27ZM 726.298 5.34766L 728.724 5.34766L 728.724 0.347656L 726.298 0.347656L 726.298 5.34766ZM 726.942 4.60068L 747.93 25.9405L 751.495 22.4345L 730.507 1.09463L 726.942 4.60068ZM 752.212 24.1875L 752.212 2.84766L 747.212 2.84766L 747.212 24.1875L 752.212 24.1875ZM 749.712 5.34766L 751.875 5.34766L 751.875 0.347656L 749.712 0.347656L 749.712 5.34766ZM 749.375 2.84766L 749.375 27L 754.375 27L 754.375 2.84766L 749.375 2.84766ZM 751.875 24.5L 749.484 24.5L 749.484 29.5L 751.875 29.5L 751.875 24.5ZM 778.013 27L 775.513 27L 775.513 29.5L 778.013 29.5L 778.013 27ZM 778.013 2.84766L 778.013 0.347656L 775.513 0.347656L 775.513 2.84766L 778.013 2.84766ZM 780.21 2.84766L 782.71 2.84766L 782.71 0.347656L 780.21 0.347656L 780.21 2.84766ZM 780.21 24.9434L 777.71 24.9434L 777.71 27.4434L 780.21 27.4434L 780.21 24.9434ZM 797.859 24.9434L 800.359 24.9434L 800.359 22.4434L 797.859 22.4434L 797.859 24.9434ZM 797.859 27L 797.859 29.5L 800.359 29.5L 800.359 27L 797.859 27ZM 780.513 27L 780.513 2.84766L 775.513 2.84766L 775.513 27L 780.513 27ZM 778.013 5.34766L 780.21 5.34766L 780.21 0.347656L 778.013 0.347656L 778.013 5.34766ZM 777.71 2.84766L 777.71 24.9434L 782.71 24.9434L 782.71 2.84766L 777.71 2.84766ZM 780.21 27.4434L 797.859 27.4434L 797.859 22.4434L 780.21 22.4434L 780.21 27.4434ZM 795.359 24.9434L 795.359 27L 800.359 27L 800.359 24.9434L 795.359 24.9434ZM 797.859 24.5L 778.013 24.5L 778.013 29.5L 797.859 29.5L 797.859 24.5ZM 826.265 16.7695L 824.327 15.1908L 823.765 15.8803L 823.765 16.7695L 826.265 16.7695ZM 826.265 27L 826.265 29.5L 828.765 29.5L 828.765 27L 826.265 27ZM 824.068 27L 821.568 27L 821.568 29.5L 824.068 29.5L 824.068 27ZM 824.068 16.7695L 826.568 16.7695L 826.568 15.8803L 826.006 15.1908L 824.068 16.7695ZM 812.73 2.84766L 812.73 0.347656L 807.47 0.347656L 810.791 4.42635L 812.73 2.84766ZM 815.349 2.84766L 817.289 1.27117L 816.539 0.347656L 815.349 0.347656L 815.349 2.84766ZM 825.175 14.9414L 823.235 16.5179L 825.179 18.9102L 827.118 16.5145L 825.175 14.9414ZM 834.966 2.84766L 834.966 0.347656L 833.774 0.347656L 833.023 1.27458L 834.966 2.84766ZM 837.603 2.84766L 839.542 4.42635L 842.863 0.347656L 837.603 0.347656L 837.603 2.84766ZM 823.765 16.7695L 823.765 27L 828.765 27L 828.765 16.7695L 823.765 16.7695ZM 826.265 24.5L 824.068 24.5L 824.068 29.5L 826.265 29.5L 826.265 24.5ZM 826.568 27L 826.568 16.7695L 821.568 16.7695L 821.568 27L 826.568 27ZM 826.006 15.1908L 814.668 1.26896L 810.791 4.42635L 822.129 18.3482L 826.006 15.1908ZM 812.73 5.34766L 815.349 5.34766L 815.349 0.347656L 812.73 0.347656L 812.73 5.34766ZM 813.409 4.42414L 823.235 16.5179L 827.116 13.3649L 817.289 1.27117L 813.409 4.42414ZM 827.118 16.5145L 836.909 4.42073L 833.023 1.27458L 823.232 13.3683L 827.118 16.5145ZM 834.966 5.34766L 837.603 5.34766L 837.603 0.347656L 834.966 0.347656L 834.966 5.34766ZM 835.665 1.26896L 824.327 15.1908L 828.204 18.3482L 839.542 4.42635L 835.665 1.26896ZM 670.013 44.416L 668.918 46.6635L 672.513 48.4149L 672.513 44.416L 670.013 44.416ZM 668.431 43.7129L 667.441 46.0084L 667.46 46.0167L 667.479 46.0246L 668.431 43.7129ZM 666.375 43.0273L 665.742 45.446L 665.751 45.4483L 666.375 43.0273ZM 663.791 42.5352L 663.429 45.0088L 663.443 45.011L 663.458 45.013L 663.791 42.5352ZM 656.794 42.5703L 656.43 40.097L 656.426 40.0976L 656.794 42.5703ZM 653.982 43.3438L 655.001 45.6268L 655.009 45.6233L 655.016 45.6197L 653.982 43.3438ZM 652.224 44.6445L 650.251 43.1097L 650.24 43.1235L 650.229 43.1374L 652.224 44.6445ZM 652.189 48.125L 650.256 49.7108L 650.268 49.7254L 650.28 49.7399L 652.189 48.125ZM 653.736 49.3379L 652.539 51.5326L 652.547 51.5371L 652.555 51.5416L 653.736 49.3379ZM 656.021 50.3047L 655.221 52.6732L 655.24 52.6796L 655.259 52.6857L 656.021 50.3047ZM 658.798 51.1133L 658.158 53.5298L 658.175 53.5344L 658.192 53.5386L 658.798 51.1133ZM 661.822 51.8691L 661.215 54.2945L 661.222 54.2961L 661.822 51.8691ZM 664.845 52.7129L 664.098 55.0986L 664.115 55.1039L 664.132 55.109L 664.845 52.7129ZM 667.623 53.7148L 666.63 56.0095L 666.649 56.0175L 666.668 56.0253L 667.623 53.7148ZM 669.908 54.998L 668.39 56.985L 668.399 56.9915L 668.408 56.998L 669.908 54.998ZM 671.455 56.6855L 669.304 57.9601L 669.313 57.9747L 669.321 57.9892L 671.455 56.6855ZM 671.525 61.2559L 673.753 62.3895L 673.757 62.3817L 673.761 62.3739L 671.525 61.2559ZM 670.136 62.9961L 671.741 64.9134L 671.744 64.9104L 670.136 62.9961ZM 668.097 64.209L 669.044 66.5229L 669.052 66.5193L 669.061 66.5157L 668.097 64.209ZM 665.601 64.9648L 665.086 62.5185L 665.079 62.5199L 665.601 64.9648ZM 662.859 65.3516L 662.674 62.8584L 662.658 62.8596L 662.641 62.8611L 662.859 65.3516ZM 654.369 65.0176L 653.927 67.4783L 653.93 67.4789L 654.369 65.0176ZM 649.5 63.7695L 647 63.7695L 647 65.5585L 648.693 66.1358L 649.5 63.7695ZM 649.5 61.0801L 650.779 58.9322L 647 56.6813L 647 61.0801L 649.5 61.0801ZM 654.544 63.0312L 654.057 65.4833L 654.06 65.4839L 654.544 63.0312ZM 667.025 62.5391L 667.975 64.8514L 667.989 64.8459L 668.002 64.8402L 667.025 62.5391ZM 669.011 61.1328L 667.094 59.5285L 667.084 59.5401L 667.075 59.5519L 669.011 61.1328ZM 669.152 57.2656L 667.146 58.7582L 667.157 58.773L 667.169 58.7877L 669.152 57.2656ZM 667.605 55.9473L 666.319 58.091L 666.342 58.1047L 666.365 58.1179L 667.605 55.9473ZM 665.32 54.9277L 664.52 57.2962L 664.529 57.2994L 665.32 54.9277ZM 662.56 54.1191L 661.92 56.5357L 661.933 56.5393L 661.947 56.5428L 662.56 54.1191ZM 659.537 53.3809L 658.956 55.8126L 658.972 55.8164L 658.988 55.82L 659.537 53.3809ZM 653.753 51.6406L 652.814 53.9575L 652.825 53.9618L 653.753 51.6406ZM 651.468 50.4102L 649.974 52.4145L 649.994 52.4297L 650.015 52.4445L 651.468 50.4102ZM 649.921 48.7578L 647.781 50.05L 647.79 50.0647L 647.799 50.0792L 649.921 48.7578ZM 649.816 44.4512L 652.06 45.5522L 652.064 45.544L 652.068 45.5357L 649.816 44.4512ZM 651.064 42.8164L 649.447 40.9095L 649.437 40.9183L 649.427 40.9272L 651.064 42.8164ZM 652.945 41.6738L 653.925 43.9736L 653.941 43.9669L 653.957 43.9599L 652.945 41.6738ZM 655.23 40.9355L 655.761 43.3785L 655.774 43.3757L 655.787 43.3727L 655.23 40.9355ZM 663.035 40.5312L 662.789 43.0192L 662.793 43.0195L 663.035 40.5312ZM 665.46 40.8652L 665.013 43.3249L 665.034 43.3287L 665.055 43.3322L 665.46 40.8652ZM 667.746 41.3223L 667.167 43.7543L 667.175 43.7563L 667.746 41.3223ZM 670.013 41.8848L 672.513 41.8848L 672.513 39.9545L 670.646 39.4661L 670.013 41.8848ZM 671.108 42.1685C 670.611 41.927 670.013 41.6607 669.383 41.4012L 667.479 46.0246C 668.045 46.2573 668.501 46.4597 668.918 46.6635L 671.108 42.1685ZM 669.421 41.4174C 668.725 41.1193 667.855 40.8288 666.998 40.6064L 665.751 45.4483C 666.44 45.6244 666.942 45.7908 667.441 46.0084L 669.421 41.4174ZM 667.007 40.6087C 666.163 40.3895 665.152 40.1963 664.123 40.0574L 663.458 45.013C 664.351 45.1318 665.062 45.2668 665.742 45.446L 667.007 40.6087ZM 664.153 40.0615C 663.093 39.9085 661.845 39.8256 660.591 39.8242L 660.591 44.8242C 661.681 44.8229 662.566 44.8806 663.429 45.0088L 664.153 40.0615ZM 660.591 39.8242C 659.092 39.8255 657.644 39.9202 656.43 40.097L 657.159 45.0436C 658.171 44.8923 659.254 44.8229 660.591 44.8242L 660.591 39.8242ZM 656.426 40.0976C 655.176 40.2883 653.904 40.6416 652.947 41.0678L 655.016 45.6197C 655.607 45.3428 656.209 45.1804 657.163 45.043L 656.426 40.0976ZM 652.963 41.0607C 651.96 41.5245 650.888 42.3284 650.251 43.1097L 654.198 46.1794C 654.381 45.906 654.481 45.8427 655.001 45.6268L 652.963 41.0607ZM 650.229 43.1374C 649.605 44.0233 649.156 45.4158 649.126 46.5254L 654.126 46.5254C 654.097 46.1819 654.046 46.3205 654.219 46.1516L 650.229 43.1374ZM 649.126 46.5254C 649.162 47.5554 649.635 48.8942 650.256 49.7108L 654.122 46.5392C 654.115 46.5307 654.114 46.5287 654.117 46.5331C 654.119 46.5378 654.123 46.5449 654.126 46.553C 654.128 46.561 654.129 46.5652 654.129 46.5633C 654.128 46.5611 654.126 46.5492 654.126 46.5254L 649.126 46.5254ZM 650.28 49.7399C 650.841 50.3825 651.717 51.0745 652.539 51.5326L 654.933 47.1432C 654.466 46.8981 654.31 46.7816 654.097 46.5101L 650.28 49.7399ZM 652.555 51.5416C 653.314 51.9449 654.266 52.3488 655.221 52.6732L 656.821 47.9362C 656.042 47.6746 655.471 47.434 654.916 47.1342L 652.555 51.5416ZM 655.259 52.6857C 656.169 52.9768 657.156 53.2641 658.158 53.5298L 659.439 48.6967C 658.495 48.4468 657.63 48.195 656.783 47.9236L 655.259 52.6857ZM 658.192 53.5386C 659.176 53.7847 660.184 54.0367 661.215 54.2945L 662.428 49.4438C 661.397 49.186 660.389 48.934 659.405 48.6879L 658.192 53.5386ZM 661.222 54.2961C 662.229 54.5447 663.163 54.8053 664.098 55.0986L 665.593 50.3272C 664.582 50.0111 663.501 49.7092 662.422 49.4422L 661.222 54.2961ZM 664.132 55.109C 665.049 55.3807 665.835 55.6641 666.63 56.0095L 668.615 51.4202C 667.676 51.0156 666.611 50.631 665.558 50.3168L 664.132 55.109ZM 666.668 56.0253C 667.41 56.3273 667.889 56.5944 668.39 56.985L 671.425 53.0111C 670.637 52.4173 669.593 51.829 668.578 51.4044L 666.668 56.0253ZM 668.408 56.998C 668.885 57.3428 669.072 57.5426 669.304 57.9601L 673.605 55.411C 673.087 54.5629 672.243 53.6376 671.408 52.998L 668.408 56.998ZM 669.321 57.9892C 669.542 58.2996 669.555 58.3725 669.535 58.8828L 674.535 58.8828C 674.514 57.729 674.141 56.3372 673.588 55.3819L 669.321 57.9892ZM 669.535 58.8828C 669.549 59.5212 669.506 59.7481 669.289 60.1378L 673.761 62.3739C 674.224 61.4043 674.521 60.0492 674.535 58.8828L 669.535 58.8828ZM 669.297 60.1222C 669.083 60.5704 668.932 60.7585 668.528 61.0818L 671.744 64.9104C 672.512 64.2493 673.287 63.2773 673.753 62.3895L 669.297 60.1222ZM 668.532 61.0788C 668.116 61.437 667.759 61.6477 667.133 61.9023L 669.061 66.5157C 670.006 66.114 671.008 65.5161 671.741 64.9134L 668.532 61.0788ZM 667.151 61.8951C 666.487 62.1695 665.871 62.3555 665.086 62.5185L 666.116 67.4112C 667.112 67.1991 668.16 66.8813 669.044 66.5229L 667.151 61.8951ZM 665.079 62.5199C 664.287 62.6906 663.541 62.7956 662.674 62.8584L 663.044 67.8447C 664.075 67.7669 665.158 67.6141 666.123 67.4098L 665.079 62.5199ZM 662.641 62.8611C 661.757 62.939 660.94 62.9752 660.082 62.9746L 660.082 67.9746C 661.051 67.974 662.086 67.9282 663.077 67.842L 662.641 62.8611ZM 660.082 62.9746C 658.084 62.9766 656.399 62.8427 654.807 62.5563L 653.93 67.4789C 655.76 67.8018 657.884 67.9726 660.082 67.9746L 660.082 62.9746ZM 654.81 62.5568C 653.201 62.27 651.761 61.9011 650.306 61.4033L 648.693 66.1358C 650.332 66.6927 652.138 67.1558 653.927 67.4783L 654.81 62.5568ZM 652 63.7695L 652 61.0801L 647 61.0801L 647 63.7695L 652 63.7695ZM 648.22 63.228C 649.999 64.277 652.078 65.0805 654.057 65.4833L 655.032 60.5792C 653.472 60.2788 652.188 59.7816 650.779 58.9322L 648.22 63.228ZM 654.06 65.4839C 655.966 65.8568 658.078 66.0558 660.152 66.0586L 660.152 61.0586C 658.312 61.0613 656.685 60.9088 655.029 60.5786L 654.06 65.4839ZM 660.152 66.0586C 661.615 66.0573 663.066 65.9637 664.331 65.7884L 663.637 60.8366C 662.558 60.9895 661.455 61.0599 660.152 61.0586L 660.152 66.0586ZM 664.331 65.7884C 665.638 65.6015 666.955 65.2641 667.975 64.8514L 666.075 60.2267C 665.384 60.5171 664.674 60.6954 663.637 60.8366L 664.331 65.7884ZM 668.002 64.8402C 669.098 64.3591 670.249 63.5344 670.948 62.7138L 667.075 59.5519C 666.836 59.8797 666.663 59.9925 666.048 60.238L 668.002 64.8402ZM 670.929 62.7371C 671.67 61.7855 672.198 60.2652 672.232 59.0234L 667.232 59.0234C 667.266 59.4458 667.313 59.3316 667.094 59.5285L 670.929 62.7371ZM 672.232 59.0234C 672.2 57.9587 671.748 56.6003 671.135 55.7436L 667.169 58.7877C 667.329 58.9387 667.264 58.7522 667.232 59.0234L 672.232 59.0234ZM 671.157 55.7731C 670.602 55.0533 669.698 54.2767 668.845 53.7767L 666.365 58.1179C 666.824 58.3678 666.952 58.4702 667.146 58.7582L 671.157 55.7731ZM 668.891 53.8035C 668.115 53.3431 667.104 52.8905 666.11 52.556L 664.529 57.2994C 665.293 57.5509 665.806 57.778 666.319 58.091L 668.891 53.8035ZM 666.12 52.5592C 665.204 52.2505 664.191 51.9534 663.173 51.6955L 661.947 56.5428C 662.875 56.777 663.701 57.0191 664.52 57.2962L 666.12 52.5592ZM 663.201 51.7026C 662.204 51.4386 661.15 51.1812 660.085 50.9417L 658.988 55.82C 660.009 56.0492 660.971 56.284 661.92 56.5357L 663.201 51.7026ZM 660.117 50.9491C 659.114 50.7099 658.169 50.4613 657.225 50.1882L 655.836 54.9915C 656.838 55.2809 657.897 55.5596 658.956 55.8126L 660.117 50.9491ZM 657.225 50.1882C 656.31 49.9243 655.501 49.648 654.682 49.3194L 652.825 53.9618C 653.764 54.3364 654.806 54.6929 655.836 54.9915L 657.225 50.1882ZM 654.693 49.3238C 653.95 49.0267 653.446 48.7569 652.921 48.3758L 650.015 52.4445C 650.803 53.0009 651.822 53.5514 652.814 53.9575L 654.693 49.3238ZM 652.962 48.4058C 652.49 48.0659 652.291 47.8567 652.044 47.4364L 647.799 50.0792C 648.325 50.9012 649.158 51.7935 649.974 52.4145L 652.962 48.4058ZM 652.062 47.4656C 651.85 47.1658 651.839 47.0987 651.859 46.5957L 646.859 46.5957C 646.879 47.7333 647.243 49.1076 647.781 50.05L 652.062 47.4656ZM 651.859 46.5957C 651.845 46.0491 651.874 45.8895 652.06 45.5522L 647.571 43.3501C 647.149 44.255 646.873 45.5251 646.859 46.5957L 651.859 46.5957ZM 652.068 45.5357C 652.251 45.1259 652.358 44.9855 652.701 44.7056L 649.427 40.9272C 648.715 41.5614 647.99 42.5108 647.563 43.3666L 652.068 45.5357ZM 652.681 44.7233C 653.065 44.3874 653.372 44.2024 653.925 43.9736L 651.965 39.374C 651.088 39.7546 650.141 40.3313 649.447 40.9095L 652.681 44.7233ZM 653.957 43.9599C 654.551 43.6931 655.072 43.5252 655.761 43.3785L 654.699 38.4926C 653.771 38.6975 652.768 39.0218 651.933 39.3878L 653.957 43.9599ZM 655.787 43.3727C 656.525 43.2026 657.212 43.0937 658.011 43.0204L 657.546 38.0421C 656.588 38.1328 655.576 38.2935 654.673 38.4984L 655.787 43.3727ZM 658.011 43.0204C 658.833 42.9431 659.584 42.9075 660.38 42.9082L 660.38 37.9082C 659.466 37.9089 658.482 37.9554 657.546 38.0421L 658.011 43.0204ZM 660.38 42.9082C 661.26 42.9075 662.022 42.9427 662.789 43.0192L 663.28 38.0433C 662.383 37.9557 661.376 37.9089 660.38 37.9082L 660.38 42.9082ZM 662.793 43.0195C 663.587 43.0962 664.293 43.1933 665.013 43.3249L 665.908 38.4056C 665.081 38.2559 664.17 38.1303 663.277 38.043L 662.793 43.0195ZM 665.055 43.3322C 665.798 43.4537 666.473 43.5886 667.167 43.7543L 668.325 38.8903C 667.542 38.7043 666.693 38.5346 665.865 38.3983L 665.055 43.3322ZM 667.175 43.7563C 667.909 43.9283 668.634 44.1081 669.381 44.3034L 670.646 39.4661C 669.869 39.2629 669.082 39.0677 668.316 38.8882L 667.175 43.7563ZM 667.513 41.8848L 667.513 44.416L 672.513 44.416L 672.513 41.8848L 667.513 41.8848ZM 718.951 65L 716.735 66.157L 717.436 67.5L 718.951 67.5L 718.951 65ZM 715.628 58.6367L 717.845 57.4797L 717.143 56.1367L 715.628 56.1367L 715.628 58.6367ZM 699.228 58.6367L 699.228 56.1367L 697.713 56.1367L 697.012 57.4797L 699.228 58.6367ZM 695.906 65L 695.906 67.5L 697.421 67.5L 698.122 66.157L 695.906 65ZM 693.498 65L 691.283 63.8409L 689.368 67.5L 693.498 67.5L 693.498 65ZM 706.136 40.8477L 706.136 38.3477L 704.623 38.3477L 703.921 39.6885L 706.136 40.8477ZM 708.72 40.8477L 710.935 39.6885L 710.234 38.3477L 708.72 38.3477L 708.72 40.8477ZM 721.359 65L 721.359 67.5L 725.489 67.5L 723.574 63.8409L 721.359 65ZM 707.437 42.9746L 709.653 41.8179L 707.44 37.5766L 705.222 41.8157L 707.437 42.9746ZM 700.3 56.6152L 698.085 55.4563L 696.171 59.1152L 700.3 59.1152L 700.3 56.6152ZM 714.556 56.6152L 714.556 59.1152L 718.681 59.1152L 716.772 55.4585L 714.556 56.6152ZM 721.167 63.843L 717.845 57.4797L 713.412 59.7938L 716.735 66.157L 721.167 63.843ZM 715.628 56.1367L 699.228 56.1367L 699.228 61.1367L 715.628 61.1367L 715.628 56.1367ZM 697.012 57.4797L 693.69 63.843L 698.122 66.157L 701.444 59.7938L 697.012 57.4797ZM 695.906 62.5L 693.498 62.5L 693.498 67.5L 695.906 67.5L 695.906 62.5ZM 695.713 66.1591L 708.351 42.0068L 703.921 39.6885L 691.283 63.8409L 695.713 66.1591ZM 706.136 43.3477L 708.72 43.3477L 708.72 38.3477L 706.136 38.3477L 706.136 43.3477ZM 706.505 42.0068L 719.144 66.1591L 723.574 63.8409L 710.935 39.6885L 706.505 42.0068ZM 721.359 62.5L 718.951 62.5L 718.951 67.5L 721.359 67.5L 721.359 62.5ZM 705.222 41.8157L 698.085 55.4563L 702.515 57.7742L 709.652 44.1336L 705.222 41.8157ZM 700.3 59.1152L 714.556 59.1152L 714.556 54.1152L 700.3 54.1152L 700.3 59.1152ZM 716.772 55.4585L 709.653 41.8179L 705.221 44.1313L 712.34 57.7719L 716.772 55.4585ZM 744.123 65L 741.623 65L 741.623 67.5L 744.123 67.5L 744.123 65ZM 744.123 40.8477L 744.123 38.3477L 741.623 38.3477L 741.623 40.8477L 744.123 40.8477ZM 746.32 40.8477L 748.82 40.8477L 748.82 38.3477L 746.32 38.3477L 746.32 40.8477ZM 746.32 62.9434L 743.82 62.9434L 743.82 65.4434L 746.32 65.4434L 746.32 62.9434ZM 763.968 62.9434L 766.468 62.9434L 766.468 60.4434L 763.968 60.4434L 763.968 62.9434ZM 763.968 65L 763.968 67.5L 766.468 67.5L 766.468 65L 763.968 65ZM 746.623 65L 746.623 40.8477L 741.623 40.8477L 741.623 65L 746.623 65ZM 744.123 43.3477L 746.32 43.3477L 746.32 38.3477L 744.123 38.3477L 744.123 43.3477ZM 743.82 40.8477L 743.82 62.9434L 748.82 62.9434L 748.82 40.8477L 743.82 40.8477ZM 746.32 65.4434L 763.968 65.4434L 763.968 60.4434L 746.32 60.4434L 746.32 65.4434ZM 761.468 62.9434L 761.468 65L 766.468 65L 766.468 62.9434L 761.468 62.9434ZM 763.968 62.5L 744.123 62.5L 744.123 67.5L 763.968 67.5L 763.968 62.5ZM 815.173 58.5664L 817.409 59.6844L 817.413 59.6778L 815.173 58.5664ZM 811.939 62.4688L 813.431 64.4749L 813.442 64.4667L 811.939 62.4688ZM 790.107 62.4688L 788.612 64.4728L 788.623 64.481L 790.107 62.4688ZM 786.855 58.5664L 784.616 59.6778L 784.619 59.6844L 786.855 58.5664ZM 786.222 49.0215L 788.61 49.7617L 788.612 49.755L 786.222 49.0215ZM 787.751 45.8574L 789.791 47.3032L 789.795 47.2971L 789.8 47.2911L 787.751 45.8574ZM 790.125 43.4316L 788.657 41.4076L 788.651 41.412L 788.645 41.4164L 790.125 43.4316ZM 793.236 41.7441L 794.148 44.0719L 794.16 44.067L 793.236 41.7441ZM 796.927 40.7422L 797.324 43.2105L 797.335 43.2088L 797.345 43.207L 796.927 40.7422ZM 811.939 43.4316L 810.436 45.4296L 810.447 45.4378L 811.939 43.4316ZM 815.173 47.334L 812.934 48.4454L 812.937 48.452L 815.173 47.334ZM 813.24 48.4062L 810.934 49.3736L 810.938 49.3824L 810.942 49.391L 813.24 48.4062ZM 810.779 45.1016L 809.184 47.0272L 809.191 47.0323L 809.197 47.0374L 810.779 45.1016ZM 806.701 43.0625L 806.005 45.4637L 806.015 45.4667L 806.025 45.4696L 806.701 43.0625ZM 795.38 43.0625L 794.694 40.6587L 794.689 40.66L 795.38 43.0625ZM 791.285 45.1191L 792.856 47.0632L 792.863 47.0582L 792.869 47.0531L 791.285 45.1191ZM 788.789 48.4414L 791.086 49.4262L 791.09 49.4188L 788.789 48.4414ZM 791.285 60.7988L 789.7 62.7328L 789.707 62.7379L 789.713 62.7429L 791.285 60.7988ZM 795.38 62.8379L 794.689 65.2404L 794.699 65.2433L 794.709 65.2462L 795.38 62.8379ZM 806.701 62.8379L 807.381 65.2437L 807.392 65.2404L 806.701 62.8379ZM 810.779 60.7988L 812.361 62.7346L 812.367 62.7296L 812.373 62.7245L 810.779 60.7988ZM 813.24 57.4766L 810.942 56.4918L 810.938 56.5005L 810.934 56.5092L 813.24 57.4766ZM 813.851 52.9414C 813.864 54.8518 813.596 56.1659 812.934 57.455L 817.413 59.6778C 818.321 57.8028 818.838 55.3669 818.851 52.9414L 813.851 52.9414ZM 812.937 57.4484C 812.294 58.7711 811.585 59.6285 810.436 60.4708L 813.442 64.4667C 815.036 63.2465 816.482 61.5023 817.409 59.6844L 812.937 57.4484ZM 810.447 60.4626C 809.286 61.3418 808.099 61.8938 806.449 62.3192L 807.726 67.1534C 809.803 66.5945 811.85 65.6347 813.431 64.4749L 810.447 60.4626ZM 806.449 62.3192C 804.752 62.7735 803.062 62.9792 801.058 62.9746L 801.058 67.9746C 803.367 67.97 805.696 67.6835 807.726 67.1534L 806.449 62.3192ZM 801.058 62.9746C 799.041 62.9792 797.338 62.773 795.628 62.3183L 794.359 67.1544C 796.399 67.684 798.739 67.97 801.058 67.9746L 801.058 62.9746ZM 795.628 62.3183C 793.966 61.8919 792.764 61.3375 791.591 60.4565L 788.623 64.481C 790.215 65.6391 792.272 66.5963 794.359 67.1544L 795.628 62.3183ZM 791.601 60.4647C 790.444 59.6227 789.732 58.7683 789.091 57.4484L 784.619 59.6844C 785.548 61.5051 787.005 63.2523 788.612 64.4728L 791.601 60.4647ZM 789.094 57.455C 788.432 56.1659 788.164 54.8518 788.177 52.9414L 783.177 52.9414C 783.191 55.3669 783.708 57.8028 784.616 59.6778L 789.094 57.455ZM 788.177 52.9414C 788.171 51.6725 788.299 50.7374 788.61 49.7617L 783.834 48.2812C 783.419 49.6493 783.183 51.3275 783.177 52.9414L 788.177 52.9414ZM 788.612 49.755C 788.913 48.7513 789.248 48.0544 789.791 47.3032L 785.712 44.4117C 784.943 45.512 784.258 46.9245 783.832 48.2879L 788.612 49.755ZM 789.8 47.2911C 790.332 46.5162 790.837 45.9993 791.604 45.4468L 788.645 41.4164C 787.56 42.2233 786.484 43.3236 785.703 44.4238L 789.8 47.2911ZM 791.592 45.4557C 792.395 44.8672 793.153 44.4564 794.148 44.0719L 792.324 39.4164C 791.045 39.9225 789.73 40.6367 788.657 41.4076L 791.592 45.4557ZM 794.16 44.067C 795.175 43.6587 796.141 43.3971 797.324 43.2105L 796.531 38.2739C 795.088 38.5092 793.593 38.9155 792.311 39.4213L 794.16 44.067ZM 797.345 43.207C 798.55 43.0002 799.718 42.9062 801.058 42.9082L 801.058 37.9082C 799.516 37.9102 797.93 38.0388 796.509 38.2774L 797.345 43.207ZM 801.058 42.9082C 803.062 42.9036 804.752 43.1093 806.449 43.5636L 807.726 38.7294C 805.696 38.1993 803.367 37.9128 801.058 37.9082L 801.058 42.9082ZM 806.449 43.5636C 808.095 43.9878 809.277 44.5414 810.436 45.4296L 813.442 41.4337C 811.859 40.2594 809.806 39.2896 807.726 38.7294L 806.449 43.5636ZM 810.447 45.4378C 811.589 46.2649 812.292 47.1144 812.934 48.4454L 817.413 46.2226C 816.484 44.3895 815.031 42.6375 813.431 41.4255L 810.447 45.4378ZM 812.937 48.452C 813.598 49.727 813.864 51.0318 813.851 52.9414L 818.851 52.9414C 818.838 50.5151 818.319 48.0816 817.409 46.216L 812.937 48.452ZM 816.583 52.9414C 816.573 51.0009 816.195 48.9933 815.538 47.4215L 810.942 49.391C 811.41 50.4442 811.594 51.4601 811.583 52.9414L 816.583 52.9414ZM 815.545 47.4389C 814.86 45.8544 813.676 44.2647 812.361 43.1657L 809.197 47.0374C 810.062 47.7197 810.518 48.3331 810.934 49.3736L 815.545 47.4389ZM 812.373 43.1759C 811.054 42.1048 809.23 41.1874 807.376 40.6554L 806.025 45.4696C 807.429 45.8516 808.324 46.2937 809.184 47.0272L 812.373 43.1759ZM 807.397 40.6613C 805.588 40.1451 803.358 39.8642 801.058 39.8594L 801.058 44.8594C 803.048 44.8546 804.579 45.0424 806.005 45.4637L 807.397 40.6613ZM 801.058 39.8594C 798.76 39.8641 796.522 40.144 794.694 40.6587L 796.067 45.4663C 797.52 45.0435 799.067 44.8546 801.058 44.8594L 801.058 39.8594ZM 794.689 40.66C 792.841 41.203 791.025 42.12 789.7 43.1852L 792.869 47.0531C 793.748 46.3136 794.662 45.8595 796.072 45.465L 794.689 40.66ZM 789.713 43.1751C 788.384 44.2737 787.185 45.8685 786.488 47.464L 791.09 49.4188C 791.517 48.3659 791.982 47.7458 792.856 47.0632L 789.713 43.1751ZM 786.491 47.4566C 785.834 49.0268 785.456 51.0226 785.445 52.9414L 790.445 52.9414C 790.434 51.4853 790.618 50.481 791.086 49.4262L 786.491 47.4566ZM 785.445 52.9414C 785.455 54.8819 785.834 56.8895 786.491 58.4614L 791.086 56.4918C 790.619 55.4386 790.434 54.4227 790.445 52.9414L 785.445 52.9414ZM 786.491 58.4614C 787.187 60.0413 788.379 61.6268 789.7 62.7328L 792.869 58.8649C 791.988 58.1662 791.515 57.5369 791.086 56.4918L 786.491 58.4614ZM 789.713 62.7429C 791.035 63.793 792.845 64.699 794.689 65.2404L 796.072 60.4354C 794.658 60.0393 793.737 59.5859 792.856 58.8548L 789.713 62.7429ZM 794.709 65.2462C 796.534 65.7471 798.763 66.0189 801.058 66.0234L 801.058 61.0234C 799.064 61.0279 797.508 60.8428 796.051 60.4296L 794.709 65.2462ZM 801.058 66.0234C 803.354 66.0189 805.576 65.746 807.381 65.2437L 806.021 60.4321C 804.591 60.8438 803.052 61.028 801.058 61.0234L 801.058 66.0234ZM 807.392 65.2404C 809.238 64.6982 811.047 63.7883 812.361 62.7346L 809.197 58.863C 808.331 59.5907 807.421 60.0401 806.009 60.4354L 807.392 65.2404ZM 812.373 62.7245C 813.684 61.6159 814.862 60.0257 815.545 58.4439L 810.934 56.5092C 810.516 57.5524 810.054 58.1771 809.184 58.8732L 812.373 62.7245ZM 815.538 58.4614C 816.195 56.8895 816.573 54.8819 816.583 52.9414L 811.583 52.9414C 811.594 54.4227 811.41 55.4386 810.942 56.4918L 815.538 58.4614ZM 863.988 65L 862.208 66.756L 862.942 67.5L 863.988 67.5L 863.988 65ZM 843 43.7305L 844.779 41.9745L 840.5 37.6377L 840.5 43.7305L 843 43.7305ZM 843 65L 843 67.5L 845.5 67.5L 845.5 65L 843 65ZM 840.802 65L 838.302 65L 838.302 67.5L 840.802 67.5L 840.802 65ZM 840.802 40.8477L 840.802 38.3477L 838.302 38.3477L 838.302 40.8477L 840.802 40.8477ZM 843.228 40.8477L 845.01 39.0946L 844.276 38.3477L 843.228 38.3477L 843.228 40.8477ZM 864.216 62.1875L 862.434 63.9405L 866.716 68.2946L 866.716 62.1875L 864.216 62.1875ZM 864.216 40.8477L 864.216 38.3477L 861.716 38.3477L 861.716 40.8477L 864.216 40.8477ZM 866.378 40.8477L 868.878 40.8477L 868.878 38.3477L 866.378 38.3477L 866.378 40.8477ZM 866.378 65L 866.378 67.5L 868.878 67.5L 868.878 65L 866.378 65ZM 865.767 63.244L 844.779 41.9745L 841.22 45.4864L 862.208 66.756L 865.767 63.244ZM 840.5 43.7305L 840.5 65L 845.5 65L 845.5 43.7305L 840.5 43.7305ZM 843 62.5L 840.802 62.5L 840.802 67.5L 843 67.5L 843 62.5ZM 843.302 65L 843.302 40.8477L 838.302 40.8477L 838.302 65L 843.302 65ZM 840.802 43.3477L 843.228 43.3477L 843.228 38.3477L 840.802 38.3477L 840.802 43.3477ZM 841.446 42.6007L 862.434 63.9405L 865.999 60.4345L 845.01 39.0946L 841.446 42.6007ZM 866.716 62.1875L 866.716 40.8477L 861.716 40.8477L 861.716 62.1875L 866.716 62.1875ZM 864.216 43.3477L 866.378 43.3477L 866.378 38.3477L 864.216 38.3477L 864.216 43.3477ZM 863.878 40.8477L 863.878 65L 868.878 65L 868.878 40.8477L 863.878 40.8477ZM 866.378 62.5L 863.988 62.5L 863.988 67.5L 866.378 67.5L 866.378 62.5Z"/>
<path id="path3_stroke" d="M 487.148 30.9551L 888.457 30.9551L 888.457 32.748L 487.148 32.748L 487.148 30.9551ZM 646.441 68.4316L 888.439 68.4316L 888.439 70.2246L 646.441 70.2246L 646.441 68.4316Z"/>
</defs>
</svg>
